M48
; DRILL file {KiCad 9.0.7} date 2026-01-23T14:09:42+0100
; FORMAT={-:-/ absolute / metric / decimal}
; #@! TF.CreationDate,2026-01-23T14:09:42+01:00
; #@! TF.GenerationSoftware,Kicad,Pcbnew,9.0.7
; #@! TF.FileFunction,Plated,1,2,PTH
FMAT,2
METRIC
; #@! TA.AperFunction,Plated,PTH,ComponentDrill
T1C0.750
; #@! TA.AperFunction,Plated,PTH,ComponentDrill
T2C0.800
; #@! TA.AperFunction,Plated,PTH,ComponentDrill
T3C0.900
; #@! TA.AperFunction,Plated,PTH,ComponentDrill
T4C0.950
; #@! TA.AperFunction,Plated,PTH,ComponentDrill
T5C1.000
; #@! TA.AperFunction,Plated,PTH,ComponentDrill
T6C1.100
; #@! TA.AperFunction,Plated,PTH,ComponentDrill
T7C1.200
%
G90
G05
T1
X119.26Y-108.95
X120.53Y-108.95
X121.8Y-108.95
T2
X94.38Y-50.38
X94.38Y-52.92
X94.38Y-55.46
X94.38Y-58.0
X94.38Y-62.46
X94.38Y-65.0
X94.38Y-67.54
X94.38Y-70.08
X94.38Y-72.62
X94.38Y-75.16
X94.38Y-77.7
X94.38Y-82.19
X94.38Y-84.73
X94.38Y-87.27
X94.38Y-89.81
X100.76Y-108.5
X102.0Y-50.38
X102.0Y-52.92
X102.0Y-55.46
X102.0Y-58.0
X102.0Y-62.46
X102.0Y-65.0
X102.0Y-67.54
X102.0Y-70.08
X102.0Y-72.62
X102.0Y-75.16
X102.0Y-77.7
X102.0Y-82.19
X102.0Y-84.73
X102.0Y-87.27
X102.0Y-89.81
X106.15Y-49.5
X106.15Y-54.5
X106.15Y-59.5
X106.15Y-64.5
X106.15Y-84.5
X106.15Y-89.5
X106.15Y-94.5
X106.15Y-99.5
X113.46Y-108.5
X118.85Y-49.5
X118.85Y-54.5
X118.85Y-59.5
X118.85Y-64.5
X118.85Y-84.5
X118.85Y-89.5
X118.85Y-94.5
X118.85Y-99.5
X125.42Y-63.0
X125.42Y-70.5
X125.42Y-78.0
X125.42Y-85.5
X127.96Y-63.0
X127.96Y-70.5
X127.96Y-78.0
X127.96Y-85.5
X130.5Y-63.0
X130.5Y-70.5
X130.5Y-78.0
X130.5Y-85.5
T3
X64.61Y-62.055
X64.61Y-84.915
X67.15Y-62.055
X67.15Y-84.915
X69.69Y-62.055
X69.69Y-84.915
X72.23Y-62.055
X72.23Y-84.915
X74.77Y-62.055
X74.77Y-84.915
X77.31Y-62.055
X77.31Y-84.915
X79.85Y-62.055
X79.85Y-84.915
X82.39Y-62.055
X82.39Y-84.915
T4
X64.5Y-93.5
X64.5Y-96.0
X64.5Y-98.5
X127.5Y-50.5
X127.5Y-53.0
X127.5Y-55.5
X127.5Y-93.5
X127.5Y-96.0
X127.5Y-98.5
T5
X75.5Y-97.5
X75.5Y-100.04
X75.5Y-108.7
X75.5Y-111.24
X94.7Y-97.46
X94.7Y-100.0
X94.7Y-108.7
X94.7Y-111.24
X128.46Y-104.5
X131.0Y-104.5
X133.54Y-104.5
T6
X65.22Y-52.5
X67.76Y-52.5
X70.3Y-52.5
X72.84Y-52.5
X75.38Y-52.5
X75.42Y-91.0
X77.92Y-52.5
X80.46Y-52.5
X83.0Y-52.5
X85.58Y-91.0
T7
X59.5Y-106.5
X59.5Y-110.0
M30
