%TF.GenerationSoftware,KiCad,Pcbnew,9.0.7*%
%TF.CreationDate,2026-01-23T14:09:22+01:00*%
%TF.ProjectId,galvoexpress,67616c76-6f65-4787-9072-6573732e6b69,rev?*%
%TF.SameCoordinates,Original*%
%TF.FileFunction,Copper,L2,Bot*%
%TF.FilePolarity,Positive*%
%FSLAX46Y46*%
G04 Gerber Fmt 4.6, Leading zero omitted, Abs format (unit mm)*
G04 Created by KiCad (PCBNEW 9.0.7) date 2026-01-23 14:09:22*
%MOMM*%
%LPD*%
G01*
G04 APERTURE LIST*
G04 Aperture macros list*
%AMRoundRect*
0 Rectangle with rounded corners*
0 $1 Rounding radius*
0 $2 $3 $4 $5 $6 $7 $8 $9 X,Y pos of 4 corners*
0 Add a 4 corners polygon primitive as box body*
4,1,4,$2,$3,$4,$5,$6,$7,$8,$9,$2,$3,0*
0 Add four circle primitives for the rounded corners*
1,1,$1+$1,$2,$3*
1,1,$1+$1,$4,$5*
1,1,$1+$1,$6,$7*
1,1,$1+$1,$8,$9*
0 Add four rect primitives between the rounded corners*
20,1,$1+$1,$2,$3,$4,$5,0*
20,1,$1+$1,$4,$5,$6,$7,0*
20,1,$1+$1,$6,$7,$8,$9,0*
20,1,$1+$1,$8,$9,$2,$3,0*%
G04 Aperture macros list end*
%TA.AperFunction,ComponentPad*%
%ADD10C,1.440000*%
%TD*%
%TA.AperFunction,ComponentPad*%
%ADD11C,1.600000*%
%TD*%
%TA.AperFunction,ComponentPad*%
%ADD12RoundRect,0.249999X-0.850001X-0.850001X0.850001X-0.850001X0.850001X0.850001X-0.850001X0.850001X0*%
%TD*%
%TA.AperFunction,ComponentPad*%
%ADD13C,2.200000*%
%TD*%
%TA.AperFunction,ComponentPad*%
%ADD14R,1.700000X1.700000*%
%TD*%
%TA.AperFunction,ComponentPad*%
%ADD15C,1.700000*%
%TD*%
%TA.AperFunction,ComponentPad*%
%ADD16RoundRect,0.250000X-0.725000X0.600000X-0.725000X-0.600000X0.725000X-0.600000X0.725000X0.600000X0*%
%TD*%
%TA.AperFunction,ComponentPad*%
%ADD17O,1.950000X1.700000*%
%TD*%
%TA.AperFunction,ComponentPad*%
%ADD18R,1.050000X1.500000*%
%TD*%
%TA.AperFunction,ComponentPad*%
%ADD19O,1.050000X1.500000*%
%TD*%
%TA.AperFunction,ComponentPad*%
%ADD20RoundRect,0.250000X0.725000X-0.600000X0.725000X0.600000X-0.725000X0.600000X-0.725000X-0.600000X0*%
%TD*%
%TA.AperFunction,ComponentPad*%
%ADD21RoundRect,0.250000X-0.550000X-0.550000X0.550000X-0.550000X0.550000X0.550000X-0.550000X0.550000X0*%
%TD*%
%TA.AperFunction,ComponentPad*%
%ADD22RoundRect,0.250001X0.899999X-0.899999X0.899999X0.899999X-0.899999X0.899999X-0.899999X-0.899999X0*%
%TD*%
%TA.AperFunction,ComponentPad*%
%ADD23C,2.300000*%
%TD*%
%TA.AperFunction,ComponentPad*%
%ADD24R,2.000000X2.000000*%
%TD*%
%TA.AperFunction,ComponentPad*%
%ADD25O,1.600000X2.000000*%
%TD*%
%TA.AperFunction,ComponentPad*%
%ADD26RoundRect,0.249999X0.850001X0.850001X-0.850001X0.850001X-0.850001X-0.850001X0.850001X-0.850001X0*%
%TD*%
%TA.AperFunction,Conductor*%
%ADD27C,0.200000*%
%TD*%
G04 APERTURE END LIST*
D10*
%TO.P,RV3,3,3*%
%TO.N,Net-(J10-Pin_1)*%
X125420000Y-85500000D03*
%TO.P,RV3,2,2*%
%TO.N,Net-(U4A--)*%
X127960000Y-85500000D03*
%TO.P,RV3,1,1*%
%TO.N,unconnected-(RV3-Pad1)*%
X130500000Y-85500000D03*
%TD*%
%TO.P,RV1,1,1*%
%TO.N,unconnected-(RV1-Pad1)*%
X130500000Y-63000000D03*
%TO.P,RV1,2,2*%
%TO.N,Net-(U3B--)*%
X127960000Y-63000000D03*
%TO.P,RV1,3,3*%
%TO.N,Net-(J9-Pin_1)*%
X125420000Y-63000000D03*
%TD*%
D11*
%TO.P,R2,1*%
%TO.N,Net-(U1-D3)*%
X100760000Y-108500000D03*
%TO.P,R2,2*%
%TO.N,Net-(Q1-B)*%
X113460000Y-108500000D03*
%TD*%
D12*
%TO.P,D1,1,K*%
%TO.N,Net-(D1-K)*%
X75420000Y-91000000D03*
D13*
%TO.P,D1,2,A*%
%TO.N,Net-(D1-A)*%
X85580000Y-91000000D03*
%TD*%
D14*
%TO.P,J2,1,Pin_1*%
%TO.N,Net-(J10-Pin_3)*%
X94700000Y-97460000D03*
D15*
%TO.P,J2,2,Pin_2*%
X94700000Y-100000000D03*
%TD*%
D11*
%TO.P,R1,1*%
%TO.N,Net-(J9-Pin_1)*%
X118850000Y-59500000D03*
%TO.P,R1,2*%
%TO.N,Net-(U3A--)*%
X106150000Y-59500000D03*
%TD*%
D14*
%TO.P,J4,1,Pin_1*%
%TO.N,Net-(J10-Pin_3)*%
X75500000Y-97500000D03*
D15*
%TO.P,J4,2,Pin_2*%
X75500000Y-100040000D03*
%TD*%
D16*
%TO.P,J5,1,Pin_1*%
%TO.N,Net-(J3-Pin_1)*%
X64500000Y-93500000D03*
D17*
%TO.P,J5,2,Pin_2*%
%TO.N,Net-(J10-Pin_3)*%
X64500000Y-96000000D03*
%TO.P,J5,3,Pin_3*%
%TO.N,Net-(J5-Pin_3)*%
X64500000Y-98500000D03*
%TD*%
D11*
%TO.P,R6,1*%
%TO.N,Net-(J10-Pin_3)*%
X118850000Y-89500000D03*
%TO.P,R6,2*%
%TO.N,Net-(U4A--)*%
X106150000Y-89500000D03*
%TD*%
D14*
%TO.P,J1,1,Pin_1*%
%TO.N,Net-(D1-A)*%
X94700000Y-108700000D03*
D15*
%TO.P,J1,2,Pin_2*%
X94700000Y-111240000D03*
%TD*%
D10*
%TO.P,RV6,1,1*%
%TO.N,Net-(U3B-+)*%
X130500000Y-70500000D03*
%TO.P,RV6,2,2*%
%TO.N,Net-(U2-VrefA)*%
X127960000Y-70500000D03*
%TO.P,RV6,3,3*%
%TO.N,unconnected-(RV6-Pad3)*%
X125420000Y-70500000D03*
%TD*%
D18*
%TO.P,Q1,1,B*%
%TO.N,Net-(Q1-B)*%
X119260000Y-108950000D03*
D19*
%TO.P,Q1,2,E*%
%TO.N,Net-(J6-Pin_3)*%
X120530000Y-108950000D03*
%TO.P,Q1,3,C*%
%TO.N,Net-(J10-Pin_3)*%
X121800000Y-108950000D03*
%TD*%
D11*
%TO.P,R8,1*%
%TO.N,Net-(J10-Pin_3)*%
X118850000Y-99500000D03*
%TO.P,R8,2*%
%TO.N,Net-(U4B-+)*%
X106150000Y-99500000D03*
%TD*%
%TO.P,R7,1*%
%TO.N,Net-(J10-Pin_1)*%
X106150000Y-84500000D03*
%TO.P,R7,2*%
%TO.N,Net-(U4B--)*%
X118850000Y-84500000D03*
%TD*%
%TO.P,R9,1*%
%TO.N,Net-(U4B--)*%
X118850000Y-94500000D03*
%TO.P,R9,2*%
%TO.N,Net-(J10-Pin_2)*%
X106150000Y-94500000D03*
%TD*%
D20*
%TO.P,J10,1,Pin_1*%
%TO.N,Net-(J10-Pin_1)*%
X127500000Y-98500000D03*
D17*
%TO.P,J10,2,Pin_2*%
%TO.N,Net-(J10-Pin_2)*%
X127500000Y-96000000D03*
%TO.P,J10,3,Pin_3*%
%TO.N,Net-(J10-Pin_3)*%
X127500000Y-93500000D03*
%TD*%
D11*
%TO.P,R4,1*%
%TO.N,Net-(J10-Pin_3)*%
X106150000Y-64500000D03*
%TO.P,R4,2*%
%TO.N,Net-(U3B--)*%
X118850000Y-64500000D03*
%TD*%
D21*
%TO.P,U2,1,Vdd*%
%TO.N,Net-(U1-3V3)*%
X94380000Y-62460000D03*
D11*
%TO.P,U2,2,NC*%
%TO.N,unconnected-(U2-NC-Pad2)*%
X94380000Y-65000000D03*
%TO.P,U2,3,~{CS}*%
%TO.N,Net-(U1-CS{slash}D8)*%
X94380000Y-67540000D03*
%TO.P,U2,4,SCK*%
%TO.N,Net-(U1-SCK{slash}D5)*%
X94380000Y-70080000D03*
%TO.P,U2,5,SDI*%
%TO.N,Net-(U1-MOSI{slash}D7)*%
X94380000Y-72620000D03*
%TO.P,U2,6,NC*%
%TO.N,unconnected-(U2-NC-Pad6)*%
X94380000Y-75160000D03*
%TO.P,U2,7,NC*%
%TO.N,unconnected-(U2-NC-Pad7)*%
X94380000Y-77700000D03*
%TO.P,U2,8,~{LDAC}*%
%TO.N,Net-(U1-CS{slash}D8)*%
X102000000Y-77700000D03*
%TO.P,U2,9,~{SHDN}*%
%TO.N,Net-(U1-3V3)*%
X102000000Y-75160000D03*
%TO.P,U2,10,VB*%
%TO.N,unconnected-(U2-VB-Pad10)*%
X102000000Y-72620000D03*
%TO.P,U2,11,VrefB*%
%TO.N,unconnected-(U2-VrefB-Pad11)*%
X102000000Y-70080000D03*
%TO.P,U2,12,Vss*%
%TO.N,Net-(J10-Pin_3)*%
X102000000Y-67540000D03*
%TO.P,U2,13,VrefA*%
%TO.N,Net-(U2-VrefA)*%
X102000000Y-65000000D03*
%TO.P,U2,14,VA*%
%TO.N,Net-(U2-VA)*%
X102000000Y-62460000D03*
%TD*%
D10*
%TO.P,RV2,1,1*%
%TO.N,Net-(U4A-+)*%
X130500000Y-78000000D03*
%TO.P,RV2,2,2*%
%TO.N,Net-(U2-VA)*%
X127960000Y-78000000D03*
%TO.P,RV2,3,3*%
%TO.N,unconnected-(RV2-Pad3)*%
X125420000Y-78000000D03*
%TD*%
D22*
%TO.P,J7,1,Pin_1*%
%TO.N,Net-(J10-Pin_3)*%
X59500000Y-110000000D03*
D23*
%TO.P,J7,2,Pin_2*%
%TO.N,Net-(D1-K)*%
X59500000Y-106500000D03*
%TD*%
D11*
%TO.P,R3,1*%
%TO.N,Net-(J9-Pin_2)*%
X118850000Y-54500000D03*
%TO.P,R3,2*%
%TO.N,Net-(U3A--)*%
X106150000Y-54500000D03*
%TD*%
%TO.P,R5,1*%
%TO.N,Net-(J10-Pin_3)*%
X118850000Y-49500000D03*
%TO.P,R5,2*%
%TO.N,Net-(U3A-+)*%
X106150000Y-49500000D03*
%TD*%
D20*
%TO.P,J9,1,Pin_1*%
%TO.N,Net-(J9-Pin_1)*%
X127500000Y-55500000D03*
D17*
%TO.P,J9,2,Pin_2*%
%TO.N,Net-(J9-Pin_2)*%
X127500000Y-53000000D03*
%TO.P,J9,3,Pin_3*%
%TO.N,Net-(J10-Pin_3)*%
X127500000Y-50500000D03*
%TD*%
D21*
%TO.P,U3,1*%
%TO.N,Net-(J9-Pin_2)*%
X94380000Y-50380000D03*
D11*
%TO.P,U3,2,-*%
%TO.N,Net-(U3A--)*%
X94380000Y-52920000D03*
%TO.P,U3,3,+*%
%TO.N,Net-(U3A-+)*%
X94380000Y-55460000D03*
%TO.P,U3,4,V-*%
%TO.N,Net-(J5-Pin_3)*%
X94380000Y-58000000D03*
%TO.P,U3,5,+*%
%TO.N,Net-(U3B-+)*%
X102000000Y-58000000D03*
%TO.P,U3,6,-*%
%TO.N,Net-(U3B--)*%
X102000000Y-55460000D03*
%TO.P,U3,7*%
%TO.N,Net-(J9-Pin_1)*%
X102000000Y-52920000D03*
%TO.P,U3,8,V+*%
%TO.N,Net-(J3-Pin_1)*%
X102000000Y-50380000D03*
%TD*%
D24*
%TO.P,U1,1,~{RST}*%
%TO.N,unconnected-(U1-~{RST}-Pad1)*%
X82390000Y-62055000D03*
D25*
%TO.P,U1,2,A0*%
%TO.N,Net-(J8-Pin_1)*%
X79850000Y-62055000D03*
%TO.P,U1,3,D0*%
%TO.N,Net-(J8-Pin_2)*%
X77310000Y-62055000D03*
%TO.P,U1,4,SCK/D5*%
%TO.N,Net-(U1-SCK{slash}D5)*%
X74770000Y-62055000D03*
%TO.P,U1,5,MISO/D6*%
%TO.N,Net-(J8-Pin_3)*%
X72230000Y-62055000D03*
%TO.P,U1,6,MOSI/D7*%
%TO.N,Net-(U1-MOSI{slash}D7)*%
X69690000Y-62055000D03*
%TO.P,U1,7,CS/D8*%
%TO.N,Net-(U1-CS{slash}D8)*%
X67150000Y-62055000D03*
%TO.P,U1,8,3V3*%
%TO.N,Net-(U1-3V3)*%
X64610000Y-62055000D03*
%TO.P,U1,9,5V*%
%TO.N,Net-(D1-K)*%
X64610000Y-84915000D03*
%TO.P,U1,10,GND*%
%TO.N,Net-(J10-Pin_3)*%
X67150000Y-84915000D03*
%TO.P,U1,11,D4*%
%TO.N,Net-(J8-Pin_8)*%
X69690000Y-84915000D03*
%TO.P,U1,12,D3*%
%TO.N,Net-(U1-D3)*%
X72230000Y-84915000D03*
%TO.P,U1,13,SDA/D2*%
%TO.N,Net-(J8-Pin_7)*%
X74770000Y-84915000D03*
%TO.P,U1,14,SCL/D1*%
%TO.N,Net-(J8-Pin_6)*%
X77310000Y-84915000D03*
%TO.P,U1,15,RX*%
%TO.N,Net-(J8-Pin_5)*%
X79850000Y-84915000D03*
%TO.P,U1,16,TX*%
%TO.N,Net-(J8-Pin_4)*%
X82390000Y-84915000D03*
%TD*%
D14*
%TO.P,J3,1,Pin_1*%
%TO.N,Net-(J3-Pin_1)*%
X75500000Y-108700000D03*
D15*
%TO.P,J3,2,Pin_2*%
X75500000Y-111240000D03*
%TD*%
D14*
%TO.P,J6,1,Pin_1*%
%TO.N,Net-(D1-K)*%
X128460000Y-104500000D03*
D15*
%TO.P,J6,2,Pin_2*%
%TO.N,unconnected-(J6-Pin_2-Pad2)*%
X131000000Y-104500000D03*
%TO.P,J6,3,Pin_3*%
%TO.N,Net-(J6-Pin_3)*%
X133540000Y-104500000D03*
%TD*%
D26*
%TO.P,J8,1,Pin_1*%
%TO.N,Net-(J8-Pin_1)*%
X83000000Y-52500000D03*
D13*
%TO.P,J8,2,Pin_2*%
%TO.N,Net-(J8-Pin_2)*%
X80460000Y-52500000D03*
%TO.P,J8,3,Pin_3*%
%TO.N,Net-(J8-Pin_3)*%
X77920000Y-52500000D03*
%TO.P,J8,4,Pin_4*%
%TO.N,Net-(J8-Pin_4)*%
X75380000Y-52500000D03*
%TO.P,J8,5,Pin_5*%
%TO.N,Net-(J8-Pin_5)*%
X72840000Y-52500000D03*
%TO.P,J8,6,Pin_6*%
%TO.N,Net-(J8-Pin_6)*%
X70300000Y-52500000D03*
%TO.P,J8,7,Pin_7*%
%TO.N,Net-(J8-Pin_7)*%
X67760000Y-52500000D03*
%TO.P,J8,8,Pin_8*%
%TO.N,Net-(J8-Pin_8)*%
X65220000Y-52500000D03*
%TD*%
D21*
%TO.P,U4,1*%
%TO.N,Net-(J10-Pin_1)*%
X94380000Y-82190000D03*
D11*
%TO.P,U4,2,-*%
%TO.N,Net-(U4A--)*%
X94380000Y-84730000D03*
%TO.P,U4,3,+*%
%TO.N,Net-(U4A-+)*%
X94380000Y-87270000D03*
%TO.P,U4,4,V-*%
%TO.N,Net-(J5-Pin_3)*%
X94380000Y-89810000D03*
%TO.P,U4,5,+*%
%TO.N,Net-(U4B-+)*%
X102000000Y-89810000D03*
%TO.P,U4,6,-*%
%TO.N,Net-(U4B--)*%
X102000000Y-87270000D03*
%TO.P,U4,7*%
%TO.N,Net-(J10-Pin_2)*%
X102000000Y-84730000D03*
%TO.P,U4,8,V+*%
%TO.N,Net-(J3-Pin_1)*%
X102000000Y-82190000D03*
%TD*%
D27*
%TO.N,Net-(J10-Pin_3)*%
X94700000Y-100000000D02*
X94700000Y-97460000D01*
X75500000Y-100040000D02*
X75500000Y-97500000D01*
X75540000Y-97460000D02*
X75500000Y-97500000D01*
X94700000Y-97460000D02*
X75540000Y-97460000D01*
%TO.N,Net-(J5-Pin_3)*%
X94380000Y-91500000D02*
X94380000Y-89810000D01*
X98000000Y-95120000D02*
X94380000Y-91500000D01*
X98000000Y-101000000D02*
X98000000Y-95120000D01*
X96000000Y-103000000D02*
X98000000Y-101000000D01*
X84000000Y-103000000D02*
X96000000Y-103000000D01*
X83880000Y-103000000D02*
X83940000Y-102940000D01*
X75000000Y-103000000D02*
X83880000Y-103000000D01*
X70500000Y-98500000D02*
X75000000Y-103000000D01*
X64500000Y-98500000D02*
X70500000Y-98500000D01*
X83940000Y-102940000D02*
X84000000Y-103000000D01*
%TO.N,Net-(J10-Pin_3)*%
X66500000Y-97500000D02*
X75500000Y-97500000D01*
X65000000Y-96000000D02*
X66500000Y-97500000D01*
X64500000Y-96000000D02*
X65000000Y-96000000D01*
%TO.N,Net-(J3-Pin_1)*%
X95819000Y-88371000D02*
X102000000Y-82190000D01*
X93629000Y-88371000D02*
X95819000Y-88371000D01*
X89000000Y-93000000D02*
X93629000Y-88371000D01*
X79460000Y-93500000D02*
X79960000Y-93000000D01*
X64500000Y-93500000D02*
X79460000Y-93500000D01*
X79960000Y-93000000D02*
X89000000Y-93000000D01*
%TO.N,Net-(J8-Pin_4)*%
X63000000Y-64000000D02*
X82390000Y-83390000D01*
X63000000Y-61500000D02*
X63000000Y-64000000D01*
X70880000Y-57000000D02*
X67500000Y-57000000D01*
X67500000Y-57000000D02*
X63000000Y-61500000D01*
X75380000Y-52500000D02*
X70880000Y-57000000D01*
X82390000Y-83390000D02*
X82390000Y-84915000D01*
%TO.N,Net-(J8-Pin_5)*%
X69340000Y-56000000D02*
X72840000Y-52500000D01*
X67000000Y-56000000D02*
X69340000Y-56000000D01*
X62000000Y-64650000D02*
X62000000Y-61000000D01*
X79850000Y-82500000D02*
X62000000Y-64650000D01*
X62000000Y-61000000D02*
X67000000Y-56000000D01*
X79850000Y-84915000D02*
X79850000Y-82500000D01*
%TO.N,Net-(J8-Pin_6)*%
X67800000Y-55000000D02*
X70300000Y-52500000D01*
X66500000Y-55000000D02*
X67800000Y-55000000D01*
X77310000Y-81310000D02*
X61000000Y-65000000D01*
X61000000Y-60500000D02*
X66500000Y-55000000D01*
X77310000Y-84915000D02*
X77310000Y-81310000D01*
X61000000Y-65000000D02*
X61000000Y-60500000D01*
%TO.N,Net-(J8-Pin_7)*%
X60000000Y-60260000D02*
X67760000Y-52500000D01*
X60000000Y-65000000D02*
X60000000Y-60260000D01*
X74770000Y-79770000D02*
X60000000Y-65000000D01*
X74770000Y-84915000D02*
X74770000Y-79770000D01*
%TO.N,Net-(J8-Pin_8)*%
X69690000Y-76000000D02*
X69690000Y-84915000D01*
X59000000Y-65310000D02*
X69690000Y-76000000D01*
X59000000Y-58720000D02*
X59000000Y-65310000D01*
X65220000Y-52500000D02*
X59000000Y-58720000D01*
%TO.N,Net-(U1-3V3)*%
X64610000Y-62055000D02*
X68665000Y-58000000D01*
%TO.N,Net-(U1-MOSI{slash}D7)*%
X70991000Y-63356000D02*
X69690000Y-62055000D01*
X75226049Y-63356000D02*
X70991000Y-63356000D01*
X75871000Y-62711049D02*
X75226049Y-63356000D01*
X78107951Y-59500000D02*
X75871000Y-61736951D01*
X75871000Y-61736951D02*
X75871000Y-62711049D01*
X92000000Y-70240000D02*
X92000000Y-60500000D01*
X91000000Y-59500000D02*
X78107951Y-59500000D01*
X94380000Y-72620000D02*
X92000000Y-70240000D01*
X92000000Y-60500000D02*
X91000000Y-59500000D01*
%TO.N,Net-(U1-SCK{slash}D5)*%
X92500000Y-68200000D02*
X94380000Y-70080000D01*
X91365800Y-59000000D02*
X92500000Y-60134200D01*
X77825000Y-59000000D02*
X91365800Y-59000000D01*
X92500000Y-60134200D02*
X92500000Y-68200000D01*
X74770000Y-62055000D02*
X77825000Y-59000000D01*
%TO.N,Net-(U1-CS{slash}D8)*%
X93170000Y-66330000D02*
X94380000Y-67540000D01*
X93170000Y-60237100D02*
X93170000Y-66330000D01*
X70705000Y-58500000D02*
X91432900Y-58500000D01*
X67150000Y-62055000D02*
X70705000Y-58500000D01*
X91432900Y-58500000D02*
X93170000Y-60237100D01*
%TO.N,Net-(U1-3V3)*%
X91500000Y-58000000D02*
X94380000Y-60880000D01*
X68665000Y-58000000D02*
X91500000Y-58000000D01*
X94380000Y-60880000D02*
X94380000Y-62460000D01*
%TO.N,Net-(J3-Pin_1)*%
X99500000Y-79690000D02*
X102000000Y-82190000D01*
X99500000Y-52880000D02*
X99500000Y-79690000D01*
X102000000Y-50380000D02*
X99500000Y-52880000D01*
%TO.N,Net-(J10-Pin_3)*%
X106150000Y-66390000D02*
X106150000Y-64500000D01*
X105000000Y-67540000D02*
X102000000Y-67540000D01*
X105000000Y-67540000D02*
X106150000Y-66390000D01*
X105040000Y-67540000D02*
X105000000Y-67540000D01*
X119951000Y-82451000D02*
X105040000Y-67540000D01*
X119951000Y-88399000D02*
X119951000Y-82451000D01*
X118850000Y-89500000D02*
X119951000Y-88399000D01*
X118850000Y-89500000D02*
X123500000Y-89500000D01*
X123500000Y-89500000D02*
X127500000Y-93500000D01*
%TO.N,Net-(U4B--)*%
X116500000Y-86850000D02*
X118850000Y-84500000D01*
X116500000Y-92150000D02*
X116500000Y-86850000D01*
X118850000Y-94500000D02*
X116500000Y-92150000D01*
X112500000Y-84500000D02*
X118850000Y-84500000D01*
X109730000Y-87270000D02*
X112500000Y-84500000D01*
X102000000Y-87270000D02*
X109730000Y-87270000D01*
%TO.N,Net-(J10-Pin_2)*%
X107650000Y-96000000D02*
X127500000Y-96000000D01*
X106150000Y-94500000D02*
X107650000Y-96000000D01*
%TO.N,Net-(J10-Pin_3)*%
X62500000Y-94000000D02*
X64500000Y-96000000D01*
X62500000Y-89565000D02*
X62500000Y-94000000D01*
X62500000Y-98000000D02*
X64500000Y-96000000D01*
X62500000Y-107000000D02*
X62500000Y-98000000D01*
X59500000Y-110000000D02*
X62500000Y-107000000D01*
X62500000Y-89565000D02*
X67150000Y-84915000D01*
%TD*%
M02*
