%TF.GenerationSoftware,KiCad,Pcbnew,9.0.7*%
%TF.CreationDate,2026-01-23T14:09:22+01:00*%
%TF.ProjectId,galvoexpress,67616c76-6f65-4787-9072-6573732e6b69,rev?*%
%TF.SameCoordinates,Original*%
%TF.FileFunction,Copper,L1,Top*%
%TF.FilePolarity,Positive*%
%FSLAX46Y46*%
G04 Gerber Fmt 4.6, Leading zero omitted, Abs format (unit mm)*
G04 Created by KiCad (PCBNEW 9.0.7) date 2026-01-23 14:09:22*
%MOMM*%
%LPD*%
G01*
G04 APERTURE LIST*
G04 Aperture macros list*
%AMRoundRect*
0 Rectangle with rounded corners*
0 $1 Rounding radius*
0 $2 $3 $4 $5 $6 $7 $8 $9 X,Y pos of 4 corners*
0 Add a 4 corners polygon primitive as box body*
4,1,4,$2,$3,$4,$5,$6,$7,$8,$9,$2,$3,0*
0 Add four circle primitives for the rounded corners*
1,1,$1+$1,$2,$3*
1,1,$1+$1,$4,$5*
1,1,$1+$1,$6,$7*
1,1,$1+$1,$8,$9*
0 Add four rect primitives between the rounded corners*
20,1,$1+$1,$2,$3,$4,$5,0*
20,1,$1+$1,$4,$5,$6,$7,0*
20,1,$1+$1,$6,$7,$8,$9,0*
20,1,$1+$1,$8,$9,$2,$3,0*%
G04 Aperture macros list end*
%TA.AperFunction,ComponentPad*%
%ADD10C,1.440000*%
%TD*%
%TA.AperFunction,ComponentPad*%
%ADD11C,1.600000*%
%TD*%
%TA.AperFunction,ComponentPad*%
%ADD12RoundRect,0.249999X-0.850001X-0.850001X0.850001X-0.850001X0.850001X0.850001X-0.850001X0.850001X0*%
%TD*%
%TA.AperFunction,ComponentPad*%
%ADD13C,2.200000*%
%TD*%
%TA.AperFunction,ComponentPad*%
%ADD14R,1.700000X1.700000*%
%TD*%
%TA.AperFunction,ComponentPad*%
%ADD15C,1.700000*%
%TD*%
%TA.AperFunction,ComponentPad*%
%ADD16RoundRect,0.250000X-0.725000X0.600000X-0.725000X-0.600000X0.725000X-0.600000X0.725000X0.600000X0*%
%TD*%
%TA.AperFunction,ComponentPad*%
%ADD17O,1.950000X1.700000*%
%TD*%
%TA.AperFunction,ComponentPad*%
%ADD18R,1.050000X1.500000*%
%TD*%
%TA.AperFunction,ComponentPad*%
%ADD19O,1.050000X1.500000*%
%TD*%
%TA.AperFunction,ComponentPad*%
%ADD20RoundRect,0.250000X0.725000X-0.600000X0.725000X0.600000X-0.725000X0.600000X-0.725000X-0.600000X0*%
%TD*%
%TA.AperFunction,ComponentPad*%
%ADD21RoundRect,0.250000X-0.550000X-0.550000X0.550000X-0.550000X0.550000X0.550000X-0.550000X0.550000X0*%
%TD*%
%TA.AperFunction,ComponentPad*%
%ADD22RoundRect,0.250001X0.899999X-0.899999X0.899999X0.899999X-0.899999X0.899999X-0.899999X-0.899999X0*%
%TD*%
%TA.AperFunction,ComponentPad*%
%ADD23C,2.300000*%
%TD*%
%TA.AperFunction,ComponentPad*%
%ADD24R,2.000000X2.000000*%
%TD*%
%TA.AperFunction,ComponentPad*%
%ADD25O,1.600000X2.000000*%
%TD*%
%TA.AperFunction,ComponentPad*%
%ADD26RoundRect,0.249999X0.850001X0.850001X-0.850001X0.850001X-0.850001X-0.850001X0.850001X-0.850001X0*%
%TD*%
%TA.AperFunction,Conductor*%
%ADD27C,0.200000*%
%TD*%
G04 APERTURE END LIST*
D10*
%TO.P,RV3,3,3*%
%TO.N,Net-(J10-Pin_1)*%
X125420000Y-85500000D03*
%TO.P,RV3,2,2*%
%TO.N,Net-(U4A--)*%
X127960000Y-85500000D03*
%TO.P,RV3,1,1*%
%TO.N,unconnected-(RV3-Pad1)*%
X130500000Y-85500000D03*
%TD*%
%TO.P,RV1,1,1*%
%TO.N,unconnected-(RV1-Pad1)*%
X130500000Y-63000000D03*
%TO.P,RV1,2,2*%
%TO.N,Net-(U3B--)*%
X127960000Y-63000000D03*
%TO.P,RV1,3,3*%
%TO.N,Net-(J9-Pin_1)*%
X125420000Y-63000000D03*
%TD*%
D11*
%TO.P,R2,1*%
%TO.N,Net-(U1-D3)*%
X100760000Y-108500000D03*
%TO.P,R2,2*%
%TO.N,Net-(Q1-B)*%
X113460000Y-108500000D03*
%TD*%
D12*
%TO.P,D1,1,K*%
%TO.N,Net-(D1-K)*%
X75420000Y-91000000D03*
D13*
%TO.P,D1,2,A*%
%TO.N,Net-(D1-A)*%
X85580000Y-91000000D03*
%TD*%
D14*
%TO.P,J2,1,Pin_1*%
%TO.N,Net-(J10-Pin_3)*%
X94700000Y-97460000D03*
D15*
%TO.P,J2,2,Pin_2*%
X94700000Y-100000000D03*
%TD*%
D11*
%TO.P,R1,1*%
%TO.N,Net-(J9-Pin_1)*%
X118850000Y-59500000D03*
%TO.P,R1,2*%
%TO.N,Net-(U3A--)*%
X106150000Y-59500000D03*
%TD*%
D14*
%TO.P,J4,1,Pin_1*%
%TO.N,Net-(J10-Pin_3)*%
X75500000Y-97500000D03*
D15*
%TO.P,J4,2,Pin_2*%
X75500000Y-100040000D03*
%TD*%
D16*
%TO.P,J5,1,Pin_1*%
%TO.N,Net-(J3-Pin_1)*%
X64500000Y-93500000D03*
D17*
%TO.P,J5,2,Pin_2*%
%TO.N,Net-(J10-Pin_3)*%
X64500000Y-96000000D03*
%TO.P,J5,3,Pin_3*%
%TO.N,Net-(J5-Pin_3)*%
X64500000Y-98500000D03*
%TD*%
D11*
%TO.P,R6,1*%
%TO.N,Net-(J10-Pin_3)*%
X118850000Y-89500000D03*
%TO.P,R6,2*%
%TO.N,Net-(U4A--)*%
X106150000Y-89500000D03*
%TD*%
D14*
%TO.P,J1,1,Pin_1*%
%TO.N,Net-(D1-A)*%
X94700000Y-108700000D03*
D15*
%TO.P,J1,2,Pin_2*%
X94700000Y-111240000D03*
%TD*%
D10*
%TO.P,RV6,1,1*%
%TO.N,Net-(U3B-+)*%
X130500000Y-70500000D03*
%TO.P,RV6,2,2*%
%TO.N,Net-(U2-VrefA)*%
X127960000Y-70500000D03*
%TO.P,RV6,3,3*%
%TO.N,unconnected-(RV6-Pad3)*%
X125420000Y-70500000D03*
%TD*%
D18*
%TO.P,Q1,1,B*%
%TO.N,Net-(Q1-B)*%
X119260000Y-108950000D03*
D19*
%TO.P,Q1,2,E*%
%TO.N,Net-(J6-Pin_3)*%
X120530000Y-108950000D03*
%TO.P,Q1,3,C*%
%TO.N,Net-(J10-Pin_3)*%
X121800000Y-108950000D03*
%TD*%
D11*
%TO.P,R8,1*%
%TO.N,Net-(J10-Pin_3)*%
X118850000Y-99500000D03*
%TO.P,R8,2*%
%TO.N,Net-(U4B-+)*%
X106150000Y-99500000D03*
%TD*%
%TO.P,R7,1*%
%TO.N,Net-(J10-Pin_1)*%
X106150000Y-84500000D03*
%TO.P,R7,2*%
%TO.N,Net-(U4B--)*%
X118850000Y-84500000D03*
%TD*%
%TO.P,R9,1*%
%TO.N,Net-(U4B--)*%
X118850000Y-94500000D03*
%TO.P,R9,2*%
%TO.N,Net-(J10-Pin_2)*%
X106150000Y-94500000D03*
%TD*%
D20*
%TO.P,J10,1,Pin_1*%
%TO.N,Net-(J10-Pin_1)*%
X127500000Y-98500000D03*
D17*
%TO.P,J10,2,Pin_2*%
%TO.N,Net-(J10-Pin_2)*%
X127500000Y-96000000D03*
%TO.P,J10,3,Pin_3*%
%TO.N,Net-(J10-Pin_3)*%
X127500000Y-93500000D03*
%TD*%
D11*
%TO.P,R4,1*%
%TO.N,Net-(J10-Pin_3)*%
X106150000Y-64500000D03*
%TO.P,R4,2*%
%TO.N,Net-(U3B--)*%
X118850000Y-64500000D03*
%TD*%
D21*
%TO.P,U2,1,Vdd*%
%TO.N,Net-(U1-3V3)*%
X94380000Y-62460000D03*
D11*
%TO.P,U2,2,NC*%
%TO.N,unconnected-(U2-NC-Pad2)*%
X94380000Y-65000000D03*
%TO.P,U2,3,~{CS}*%
%TO.N,Net-(U1-CS{slash}D8)*%
X94380000Y-67540000D03*
%TO.P,U2,4,SCK*%
%TO.N,Net-(U1-SCK{slash}D5)*%
X94380000Y-70080000D03*
%TO.P,U2,5,SDI*%
%TO.N,Net-(U1-MOSI{slash}D7)*%
X94380000Y-72620000D03*
%TO.P,U2,6,NC*%
%TO.N,unconnected-(U2-NC-Pad6)*%
X94380000Y-75160000D03*
%TO.P,U2,7,NC*%
%TO.N,unconnected-(U2-NC-Pad7)*%
X94380000Y-77700000D03*
%TO.P,U2,8,~{LDAC}*%
%TO.N,Net-(U1-CS{slash}D8)*%
X102000000Y-77700000D03*
%TO.P,U2,9,~{SHDN}*%
%TO.N,Net-(U1-3V3)*%
X102000000Y-75160000D03*
%TO.P,U2,10,VB*%
%TO.N,unconnected-(U2-VB-Pad10)*%
X102000000Y-72620000D03*
%TO.P,U2,11,VrefB*%
%TO.N,unconnected-(U2-VrefB-Pad11)*%
X102000000Y-70080000D03*
%TO.P,U2,12,Vss*%
%TO.N,Net-(J10-Pin_3)*%
X102000000Y-67540000D03*
%TO.P,U2,13,VrefA*%
%TO.N,Net-(U2-VrefA)*%
X102000000Y-65000000D03*
%TO.P,U2,14,VA*%
%TO.N,Net-(U2-VA)*%
X102000000Y-62460000D03*
%TD*%
D10*
%TO.P,RV2,1,1*%
%TO.N,Net-(U4A-+)*%
X130500000Y-78000000D03*
%TO.P,RV2,2,2*%
%TO.N,Net-(U2-VA)*%
X127960000Y-78000000D03*
%TO.P,RV2,3,3*%
%TO.N,unconnected-(RV2-Pad3)*%
X125420000Y-78000000D03*
%TD*%
D22*
%TO.P,J7,1,Pin_1*%
%TO.N,Net-(J10-Pin_3)*%
X59500000Y-110000000D03*
D23*
%TO.P,J7,2,Pin_2*%
%TO.N,Net-(D1-K)*%
X59500000Y-106500000D03*
%TD*%
D11*
%TO.P,R3,1*%
%TO.N,Net-(J9-Pin_2)*%
X118850000Y-54500000D03*
%TO.P,R3,2*%
%TO.N,Net-(U3A--)*%
X106150000Y-54500000D03*
%TD*%
%TO.P,R5,1*%
%TO.N,Net-(J10-Pin_3)*%
X118850000Y-49500000D03*
%TO.P,R5,2*%
%TO.N,Net-(U3A-+)*%
X106150000Y-49500000D03*
%TD*%
D20*
%TO.P,J9,1,Pin_1*%
%TO.N,Net-(J9-Pin_1)*%
X127500000Y-55500000D03*
D17*
%TO.P,J9,2,Pin_2*%
%TO.N,Net-(J9-Pin_2)*%
X127500000Y-53000000D03*
%TO.P,J9,3,Pin_3*%
%TO.N,Net-(J10-Pin_3)*%
X127500000Y-50500000D03*
%TD*%
D21*
%TO.P,U3,1*%
%TO.N,Net-(J9-Pin_2)*%
X94380000Y-50380000D03*
D11*
%TO.P,U3,2,-*%
%TO.N,Net-(U3A--)*%
X94380000Y-52920000D03*
%TO.P,U3,3,+*%
%TO.N,Net-(U3A-+)*%
X94380000Y-55460000D03*
%TO.P,U3,4,V-*%
%TO.N,Net-(J5-Pin_3)*%
X94380000Y-58000000D03*
%TO.P,U3,5,+*%
%TO.N,Net-(U3B-+)*%
X102000000Y-58000000D03*
%TO.P,U3,6,-*%
%TO.N,Net-(U3B--)*%
X102000000Y-55460000D03*
%TO.P,U3,7*%
%TO.N,Net-(J9-Pin_1)*%
X102000000Y-52920000D03*
%TO.P,U3,8,V+*%
%TO.N,Net-(J3-Pin_1)*%
X102000000Y-50380000D03*
%TD*%
D24*
%TO.P,U1,1,~{RST}*%
%TO.N,unconnected-(U1-~{RST}-Pad1)*%
X82390000Y-62055000D03*
D25*
%TO.P,U1,2,A0*%
%TO.N,Net-(J8-Pin_1)*%
X79850000Y-62055000D03*
%TO.P,U1,3,D0*%
%TO.N,Net-(J8-Pin_2)*%
X77310000Y-62055000D03*
%TO.P,U1,4,SCK/D5*%
%TO.N,Net-(U1-SCK{slash}D5)*%
X74770000Y-62055000D03*
%TO.P,U1,5,MISO/D6*%
%TO.N,Net-(J8-Pin_3)*%
X72230000Y-62055000D03*
%TO.P,U1,6,MOSI/D7*%
%TO.N,Net-(U1-MOSI{slash}D7)*%
X69690000Y-62055000D03*
%TO.P,U1,7,CS/D8*%
%TO.N,Net-(U1-CS{slash}D8)*%
X67150000Y-62055000D03*
%TO.P,U1,8,3V3*%
%TO.N,Net-(U1-3V3)*%
X64610000Y-62055000D03*
%TO.P,U1,9,5V*%
%TO.N,Net-(D1-K)*%
X64610000Y-84915000D03*
%TO.P,U1,10,GND*%
%TO.N,Net-(J10-Pin_3)*%
X67150000Y-84915000D03*
%TO.P,U1,11,D4*%
%TO.N,Net-(J8-Pin_8)*%
X69690000Y-84915000D03*
%TO.P,U1,12,D3*%
%TO.N,Net-(U1-D3)*%
X72230000Y-84915000D03*
%TO.P,U1,13,SDA/D2*%
%TO.N,Net-(J8-Pin_7)*%
X74770000Y-84915000D03*
%TO.P,U1,14,SCL/D1*%
%TO.N,Net-(J8-Pin_6)*%
X77310000Y-84915000D03*
%TO.P,U1,15,RX*%
%TO.N,Net-(J8-Pin_5)*%
X79850000Y-84915000D03*
%TO.P,U1,16,TX*%
%TO.N,Net-(J8-Pin_4)*%
X82390000Y-84915000D03*
%TD*%
D14*
%TO.P,J3,1,Pin_1*%
%TO.N,Net-(J3-Pin_1)*%
X75500000Y-108700000D03*
D15*
%TO.P,J3,2,Pin_2*%
X75500000Y-111240000D03*
%TD*%
D14*
%TO.P,J6,1,Pin_1*%
%TO.N,Net-(D1-K)*%
X128460000Y-104500000D03*
D15*
%TO.P,J6,2,Pin_2*%
%TO.N,unconnected-(J6-Pin_2-Pad2)*%
X131000000Y-104500000D03*
%TO.P,J6,3,Pin_3*%
%TO.N,Net-(J6-Pin_3)*%
X133540000Y-104500000D03*
%TD*%
D26*
%TO.P,J8,1,Pin_1*%
%TO.N,Net-(J8-Pin_1)*%
X83000000Y-52500000D03*
D13*
%TO.P,J8,2,Pin_2*%
%TO.N,Net-(J8-Pin_2)*%
X80460000Y-52500000D03*
%TO.P,J8,3,Pin_3*%
%TO.N,Net-(J8-Pin_3)*%
X77920000Y-52500000D03*
%TO.P,J8,4,Pin_4*%
%TO.N,Net-(J8-Pin_4)*%
X75380000Y-52500000D03*
%TO.P,J8,5,Pin_5*%
%TO.N,Net-(J8-Pin_5)*%
X72840000Y-52500000D03*
%TO.P,J8,6,Pin_6*%
%TO.N,Net-(J8-Pin_6)*%
X70300000Y-52500000D03*
%TO.P,J8,7,Pin_7*%
%TO.N,Net-(J8-Pin_7)*%
X67760000Y-52500000D03*
%TO.P,J8,8,Pin_8*%
%TO.N,Net-(J8-Pin_8)*%
X65220000Y-52500000D03*
%TD*%
D21*
%TO.P,U4,1*%
%TO.N,Net-(J10-Pin_1)*%
X94380000Y-82190000D03*
D11*
%TO.P,U4,2,-*%
%TO.N,Net-(U4A--)*%
X94380000Y-84730000D03*
%TO.P,U4,3,+*%
%TO.N,Net-(U4A-+)*%
X94380000Y-87270000D03*
%TO.P,U4,4,V-*%
%TO.N,Net-(J5-Pin_3)*%
X94380000Y-89810000D03*
%TO.P,U4,5,+*%
%TO.N,Net-(U4B-+)*%
X102000000Y-89810000D03*
%TO.P,U4,6,-*%
%TO.N,Net-(U4B--)*%
X102000000Y-87270000D03*
%TO.P,U4,7*%
%TO.N,Net-(J10-Pin_2)*%
X102000000Y-84730000D03*
%TO.P,U4,8,V+*%
%TO.N,Net-(J3-Pin_1)*%
X102000000Y-82190000D03*
%TD*%
D27*
%TO.N,Net-(J10-Pin_1)*%
X129479000Y-85575087D02*
X129479000Y-96521000D01*
X126920000Y-84000000D02*
X127903913Y-84000000D01*
X127903913Y-84000000D02*
X129479000Y-85575087D01*
X125420000Y-85500000D02*
X126920000Y-84000000D01*
X129479000Y-96521000D02*
X127500000Y-98500000D01*
%TO.N,Net-(D1-K)*%
X128460000Y-104500000D02*
X128460000Y-107960000D01*
X128460000Y-107960000D02*
X123920000Y-112500000D01*
%TO.N,Net-(J6-Pin_3)*%
X125500000Y-103000000D02*
X132040000Y-103000000D01*
X124500000Y-104000000D02*
X125500000Y-103000000D01*
X123111000Y-110151000D02*
X124500000Y-108762000D01*
X132040000Y-103000000D02*
X133540000Y-104500000D01*
X121506000Y-110151000D02*
X123111000Y-110151000D01*
X120530000Y-109175000D02*
X121506000Y-110151000D01*
X124500000Y-108762000D02*
X124500000Y-104000000D01*
X120530000Y-108950000D02*
X120530000Y-109175000D01*
%TO.N,Net-(D1-A)*%
X85580000Y-99580000D02*
X94700000Y-108700000D01*
X85580000Y-91000000D02*
X85580000Y-99580000D01*
%TO.N,Net-(J10-Pin_3)*%
X97750000Y-103050000D02*
X97750000Y-109250000D01*
X94700000Y-100000000D02*
X97750000Y-103050000D01*
X97750000Y-109250000D02*
X99500000Y-111000000D01*
%TO.N,Net-(J3-Pin_1)*%
X75500000Y-108700000D02*
X75500000Y-111240000D01*
%TO.N,Net-(D1-A)*%
X94700000Y-108700000D02*
X94700000Y-111240000D01*
%TO.N,Net-(J3-Pin_1)*%
X75500000Y-104500000D02*
X64500000Y-93500000D01*
X75500000Y-108700000D02*
X75500000Y-104500000D01*
%TO.N,Net-(U1-D3)*%
X75407500Y-88092500D02*
X90592500Y-88092500D01*
X72230000Y-84915000D02*
X75407500Y-88092500D01*
X90592500Y-88092500D02*
X100760000Y-98260000D01*
X100760000Y-98260000D02*
X100760000Y-108500000D01*
%TO.N,Net-(J9-Pin_1)*%
X121920000Y-59500000D02*
X118850000Y-59500000D01*
X125420000Y-63000000D02*
X121920000Y-59500000D01*
%TO.N,Net-(U3B--)*%
X118850000Y-64500000D02*
X126460000Y-64500000D01*
X126460000Y-64500000D02*
X127960000Y-63000000D01*
%TO.N,Net-(J8-Pin_1)*%
X79850000Y-55650000D02*
X83000000Y-52500000D01*
X79850000Y-62055000D02*
X79850000Y-55650000D01*
%TO.N,Net-(J8-Pin_2)*%
X77310000Y-55650000D02*
X80460000Y-52500000D01*
X77310000Y-62055000D02*
X77310000Y-55650000D01*
%TO.N,Net-(J8-Pin_3)*%
X72230000Y-58190000D02*
X77920000Y-52500000D01*
X72230000Y-62055000D02*
X72230000Y-58190000D01*
%TO.N,Net-(J5-Pin_3)*%
X92000000Y-87430000D02*
X94380000Y-89810000D01*
X94380000Y-58000000D02*
X92000000Y-60380000D01*
X92000000Y-60380000D02*
X92000000Y-87430000D01*
%TO.N,Net-(U1-CS{slash}D8)*%
X97500000Y-70660000D02*
X94380000Y-67540000D01*
X102000000Y-77700000D02*
X97500000Y-73200000D01*
X97500000Y-73200000D02*
X97500000Y-70660000D01*
%TO.N,Net-(U1-3V3)*%
X97920000Y-66000000D02*
X94380000Y-62460000D01*
X98000000Y-66000000D02*
X97920000Y-66000000D01*
X98000000Y-71160000D02*
X98000000Y-66000000D01*
X102000000Y-75160000D02*
X98000000Y-71160000D01*
%TO.N,Net-(J9-Pin_1)*%
X113000000Y-59500000D02*
X118850000Y-59500000D01*
X105601000Y-65601000D02*
X106899000Y-65601000D01*
X105000000Y-65000000D02*
X105601000Y-65601000D01*
X105000000Y-55920000D02*
X105000000Y-65000000D01*
X106899000Y-65601000D02*
X113000000Y-59500000D01*
X102000000Y-52920000D02*
X105000000Y-55920000D01*
%TO.N,Net-(U3A--)*%
X99000000Y-51500000D02*
X97580000Y-52920000D01*
X103150000Y-51500000D02*
X99000000Y-51500000D01*
X106150000Y-54500000D02*
X103150000Y-51500000D01*
X97580000Y-52920000D02*
X94380000Y-52920000D01*
%TO.N,Net-(U3A-+)*%
X93279000Y-52463950D02*
X93279000Y-54359000D01*
X96681000Y-51819000D02*
X93923950Y-51819000D01*
X100500000Y-48000000D02*
X96681000Y-51819000D01*
X93923950Y-51819000D02*
X93279000Y-52463950D01*
X104650000Y-48000000D02*
X100500000Y-48000000D01*
X93279000Y-54359000D02*
X94380000Y-55460000D01*
X106150000Y-49500000D02*
X104650000Y-48000000D01*
%TO.N,Net-(U3B--)*%
X104500000Y-57960000D02*
X102000000Y-55460000D01*
X104500000Y-65500000D02*
X104500000Y-57960000D01*
X105500000Y-66500000D02*
X104500000Y-65500000D01*
X112000000Y-66500000D02*
X105500000Y-66500000D01*
X114000000Y-64500000D02*
X112000000Y-66500000D01*
X118850000Y-64500000D02*
X114000000Y-64500000D01*
%TO.N,Net-(U3B-+)*%
X103500000Y-59500000D02*
X102000000Y-58000000D01*
X103500000Y-65500000D02*
X103500000Y-59500000D01*
X105500000Y-67500000D02*
X103500000Y-65500000D01*
X130500000Y-70500000D02*
X127500000Y-67500000D01*
X127500000Y-67500000D02*
X105500000Y-67500000D01*
%TO.N,Net-(U2-VrefA)*%
X105500000Y-68500000D02*
X125960000Y-68500000D01*
X125960000Y-68500000D02*
X127960000Y-70500000D01*
X102000000Y-65000000D02*
X105500000Y-68500000D01*
%TO.N,Net-(U2-VA)*%
X102500000Y-66101000D02*
X110899000Y-74500000D01*
X100500000Y-65057050D02*
X101543950Y-66101000D01*
X110899000Y-74500000D02*
X124460000Y-74500000D01*
X124460000Y-74500000D02*
X127960000Y-78000000D01*
X100500000Y-63960000D02*
X100500000Y-65057050D01*
X102000000Y-62460000D02*
X100500000Y-63960000D01*
X101543950Y-66101000D02*
X102500000Y-66101000D01*
%TO.N,Net-(J9-Pin_1)*%
X126500000Y-55500000D02*
X122500000Y-59500000D01*
X122500000Y-59500000D02*
X118850000Y-59500000D01*
X127500000Y-55500000D02*
X126500000Y-55500000D01*
%TO.N,Net-(J9-Pin_2)*%
X128776000Y-51724000D02*
X127500000Y-53000000D01*
X128776000Y-50023240D02*
X128776000Y-51724000D01*
X125252760Y-46500000D02*
X128776000Y-50023240D01*
X98260000Y-46500000D02*
X125252760Y-46500000D01*
X94380000Y-50380000D02*
X98260000Y-46500000D01*
X125500000Y-54500000D02*
X118850000Y-54500000D01*
X127000000Y-53000000D02*
X125500000Y-54500000D01*
X127500000Y-53000000D02*
X127000000Y-53000000D01*
%TO.N,Net-(J10-Pin_3)*%
X120500000Y-50500000D02*
X127500000Y-50500000D01*
X119500000Y-49500000D02*
X120500000Y-50500000D01*
X118850000Y-49500000D02*
X119500000Y-49500000D01*
X118850000Y-51800000D02*
X106150000Y-64500000D01*
X118850000Y-49500000D02*
X118850000Y-51800000D01*
%TO.N,Net-(U3A--)*%
X106150000Y-59500000D02*
X106150000Y-54500000D01*
%TO.N,Net-(J10-Pin_1)*%
X124000000Y-85500000D02*
X125420000Y-85500000D01*
X120500000Y-82500000D02*
X108150000Y-82500000D01*
X120500000Y-82500000D02*
X121000000Y-82500000D01*
X121000000Y-82500000D02*
X124000000Y-85500000D01*
%TO.N,Net-(U4A--)*%
X114500000Y-87000000D02*
X126460000Y-87000000D01*
X106150000Y-89500000D02*
X112000000Y-89500000D01*
X112000000Y-89500000D02*
X114500000Y-87000000D01*
X126460000Y-87000000D02*
X127960000Y-85500000D01*
%TO.N,Net-(J10-Pin_1)*%
X108150000Y-82500000D02*
X106150000Y-84500000D01*
%TO.N,Net-(U4A-+)*%
X128500000Y-80000000D02*
X130500000Y-78000000D01*
X93279000Y-86169000D02*
X93279000Y-81404840D01*
X93279000Y-81404840D02*
X94683840Y-80000000D01*
X94380000Y-87270000D02*
X93279000Y-86169000D01*
X94683840Y-80000000D02*
X128500000Y-80000000D01*
%TO.N,Net-(J10-Pin_1)*%
X95481000Y-81089000D02*
X94380000Y-82190000D01*
X102739000Y-81089000D02*
X95481000Y-81089000D01*
X106150000Y-84500000D02*
X102739000Y-81089000D01*
%TO.N,Net-(U4A--)*%
X95481000Y-83629000D02*
X94380000Y-84730000D01*
X106150000Y-87322950D02*
X102456050Y-83629000D01*
X106150000Y-89500000D02*
X106150000Y-87322950D01*
X102456050Y-83629000D02*
X95481000Y-83629000D01*
%TO.N,Net-(J10-Pin_2)*%
X104000000Y-86730000D02*
X102000000Y-84730000D01*
X104000000Y-92500000D02*
X104000000Y-86730000D01*
X106000000Y-94500000D02*
X104000000Y-92500000D01*
X106150000Y-94500000D02*
X106000000Y-94500000D01*
%TO.N,Net-(U4B-+)*%
X102000000Y-95350000D02*
X106150000Y-99500000D01*
X102000000Y-89810000D02*
X102000000Y-95350000D01*
%TO.N,Net-(J10-Pin_3)*%
X125000000Y-93500000D02*
X127500000Y-93500000D01*
X119000000Y-99500000D02*
X125000000Y-93500000D01*
X118850000Y-99500000D02*
X119000000Y-99500000D01*
%TO.N,Net-(D1-K)*%
X69500000Y-112500000D02*
X123920000Y-112500000D01*
X61500000Y-104500000D02*
X69500000Y-112500000D01*
%TO.N,Net-(J10-Pin_3)*%
X121800000Y-102450000D02*
X121800000Y-108950000D01*
X118850000Y-99500000D02*
X121800000Y-102450000D01*
%TO.N,Net-(Q1-B)*%
X113910000Y-108950000D02*
X113460000Y-108500000D01*
X119260000Y-108950000D02*
X113910000Y-108950000D01*
%TO.N,Net-(J10-Pin_3)*%
X105500000Y-111000000D02*
X117000000Y-99500000D01*
X99500000Y-111000000D02*
X105500000Y-111000000D01*
X117000000Y-99500000D02*
X118850000Y-99500000D01*
%TO.N,Net-(D1-K)*%
X61500000Y-104500000D02*
X59500000Y-106500000D01*
X61500000Y-88000000D02*
X61500000Y-104500000D01*
X64610000Y-84915000D02*
X62025000Y-87500000D01*
X62025000Y-87500000D02*
X62000000Y-87500000D01*
X62000000Y-87500000D02*
X61500000Y-88000000D01*
X64610000Y-84915000D02*
X70695000Y-91000000D01*
X75420000Y-91000000D02*
X70695000Y-91000000D01*
%TD*%
M02*
