%TF.GenerationSoftware,KiCad,Pcbnew,9.0.7*%
%TF.CreationDate,2026-01-23T14:09:22+01:00*%
%TF.ProjectId,galvoexpress,67616c76-6f65-4787-9072-6573732e6b69,rev?*%
%TF.SameCoordinates,Original*%
%TF.FileFunction,Soldermask,Top*%
%TF.FilePolarity,Negative*%
%FSLAX46Y46*%
G04 Gerber Fmt 4.6, Leading zero omitted, Abs format (unit mm)*
G04 Created by KiCad (PCBNEW 9.0.7) date 2026-01-23 14:09:22*
%MOMM*%
%LPD*%
G01*
G04 APERTURE LIST*
G04 Aperture macros list*
%AMRoundRect*
0 Rectangle with rounded corners*
0 $1 Rounding radius*
0 $2 $3 $4 $5 $6 $7 $8 $9 X,Y pos of 4 corners*
0 Add a 4 corners polygon primitive as box body*
4,1,4,$2,$3,$4,$5,$6,$7,$8,$9,$2,$3,0*
0 Add four circle primitives for the rounded corners*
1,1,$1+$1,$2,$3*
1,1,$1+$1,$4,$5*
1,1,$1+$1,$6,$7*
1,1,$1+$1,$8,$9*
0 Add four rect primitives between the rounded corners*
20,1,$1+$1,$2,$3,$4,$5,0*
20,1,$1+$1,$4,$5,$6,$7,0*
20,1,$1+$1,$6,$7,$8,$9,0*
20,1,$1+$1,$8,$9,$2,$3,0*%
G04 Aperture macros list end*
%ADD10C,1.440000*%
%ADD11C,1.600000*%
%ADD12RoundRect,0.249999X-0.850001X-0.850001X0.850001X-0.850001X0.850001X0.850001X-0.850001X0.850001X0*%
%ADD13C,2.200000*%
%ADD14R,1.700000X1.700000*%
%ADD15C,1.700000*%
%ADD16RoundRect,0.250000X-0.725000X0.600000X-0.725000X-0.600000X0.725000X-0.600000X0.725000X0.600000X0*%
%ADD17O,1.950000X1.700000*%
%ADD18R,1.050000X1.500000*%
%ADD19O,1.050000X1.500000*%
%ADD20RoundRect,0.250000X0.725000X-0.600000X0.725000X0.600000X-0.725000X0.600000X-0.725000X-0.600000X0*%
%ADD21RoundRect,0.250000X-0.550000X-0.550000X0.550000X-0.550000X0.550000X0.550000X-0.550000X0.550000X0*%
%ADD22RoundRect,0.250001X0.899999X-0.899999X0.899999X0.899999X-0.899999X0.899999X-0.899999X-0.899999X0*%
%ADD23C,2.300000*%
%ADD24R,2.000000X2.000000*%
%ADD25O,1.600000X2.000000*%
%ADD26RoundRect,0.249999X0.850001X0.850001X-0.850001X0.850001X-0.850001X-0.850001X0.850001X-0.850001X0*%
G04 APERTURE END LIST*
D10*
%TO.C,RV3*%
X125420000Y-85500000D03*
X127960000Y-85500000D03*
X130500000Y-85500000D03*
%TD*%
%TO.C,RV1*%
X130500000Y-63000000D03*
X127960000Y-63000000D03*
X125420000Y-63000000D03*
%TD*%
D11*
%TO.C,R2*%
X100760000Y-108500000D03*
X113460000Y-108500000D03*
%TD*%
D12*
%TO.C,D1*%
X75420000Y-91000000D03*
D13*
X85580000Y-91000000D03*
%TD*%
D14*
%TO.C,J2*%
X94700000Y-97460000D03*
D15*
X94700000Y-100000000D03*
%TD*%
D11*
%TO.C,R1*%
X118850000Y-59500000D03*
X106150000Y-59500000D03*
%TD*%
D14*
%TO.C,J4*%
X75500000Y-97500000D03*
D15*
X75500000Y-100040000D03*
%TD*%
D16*
%TO.C,J5*%
X64500000Y-93500000D03*
D17*
X64500000Y-96000000D03*
X64500000Y-98500000D03*
%TD*%
D11*
%TO.C,R6*%
X118850000Y-89500000D03*
X106150000Y-89500000D03*
%TD*%
D14*
%TO.C,J1*%
X94700000Y-108700000D03*
D15*
X94700000Y-111240000D03*
%TD*%
D10*
%TO.C,RV6*%
X130500000Y-70500000D03*
X127960000Y-70500000D03*
X125420000Y-70500000D03*
%TD*%
D18*
%TO.C,Q1*%
X119260000Y-108950000D03*
D19*
X120530000Y-108950000D03*
X121800000Y-108950000D03*
%TD*%
D11*
%TO.C,R8*%
X118850000Y-99500000D03*
X106150000Y-99500000D03*
%TD*%
%TO.C,R7*%
X106150000Y-84500000D03*
X118850000Y-84500000D03*
%TD*%
%TO.C,R9*%
X118850000Y-94500000D03*
X106150000Y-94500000D03*
%TD*%
D20*
%TO.C,J10*%
X127500000Y-98500000D03*
D17*
X127500000Y-96000000D03*
X127500000Y-93500000D03*
%TD*%
D11*
%TO.C,R4*%
X106150000Y-64500000D03*
X118850000Y-64500000D03*
%TD*%
D21*
%TO.C,U2*%
X94380000Y-62460000D03*
D11*
X94380000Y-65000000D03*
X94380000Y-67540000D03*
X94380000Y-70080000D03*
X94380000Y-72620000D03*
X94380000Y-75160000D03*
X94380000Y-77700000D03*
X102000000Y-77700000D03*
X102000000Y-75160000D03*
X102000000Y-72620000D03*
X102000000Y-70080000D03*
X102000000Y-67540000D03*
X102000000Y-65000000D03*
X102000000Y-62460000D03*
%TD*%
D10*
%TO.C,RV2*%
X130500000Y-78000000D03*
X127960000Y-78000000D03*
X125420000Y-78000000D03*
%TD*%
D22*
%TO.C,J7*%
X59500000Y-110000000D03*
D23*
X59500000Y-106500000D03*
%TD*%
D11*
%TO.C,R3*%
X118850000Y-54500000D03*
X106150000Y-54500000D03*
%TD*%
%TO.C,R5*%
X118850000Y-49500000D03*
X106150000Y-49500000D03*
%TD*%
D20*
%TO.C,J9*%
X127500000Y-55500000D03*
D17*
X127500000Y-53000000D03*
X127500000Y-50500000D03*
%TD*%
D21*
%TO.C,U3*%
X94380000Y-50380000D03*
D11*
X94380000Y-52920000D03*
X94380000Y-55460000D03*
X94380000Y-58000000D03*
X102000000Y-58000000D03*
X102000000Y-55460000D03*
X102000000Y-52920000D03*
X102000000Y-50380000D03*
%TD*%
D24*
%TO.C,U1*%
X82390000Y-62055000D03*
D25*
X79850000Y-62055000D03*
X77310000Y-62055000D03*
X74770000Y-62055000D03*
X72230000Y-62055000D03*
X69690000Y-62055000D03*
X67150000Y-62055000D03*
X64610000Y-62055000D03*
X64610000Y-84915000D03*
X67150000Y-84915000D03*
X69690000Y-84915000D03*
X72230000Y-84915000D03*
X74770000Y-84915000D03*
X77310000Y-84915000D03*
X79850000Y-84915000D03*
X82390000Y-84915000D03*
%TD*%
D14*
%TO.C,J3*%
X75500000Y-108700000D03*
D15*
X75500000Y-111240000D03*
%TD*%
D14*
%TO.C,J6*%
X128460000Y-104500000D03*
D15*
X131000000Y-104500000D03*
X133540000Y-104500000D03*
%TD*%
D26*
%TO.C,J8*%
X83000000Y-52500000D03*
D13*
X80460000Y-52500000D03*
X77920000Y-52500000D03*
X75380000Y-52500000D03*
X72840000Y-52500000D03*
X70300000Y-52500000D03*
X67760000Y-52500000D03*
X65220000Y-52500000D03*
%TD*%
D21*
%TO.C,U4*%
X94380000Y-82190000D03*
D11*
X94380000Y-84730000D03*
X94380000Y-87270000D03*
X94380000Y-89810000D03*
X102000000Y-89810000D03*
X102000000Y-87270000D03*
X102000000Y-84730000D03*
X102000000Y-82190000D03*
%TD*%
M02*
